<?xml version="1.0" encoding="utf-8"?>
<!-- Generator: Adobe Illustrator 23.0.6, SVG Export Plug-In . SVG Version: 6.00 Build 0)  -->
<svg version="1.1" id="Layer_1" xmlns="http://www.w3.org/2000/svg" xmlns:xlink="http://www.w3.org/1999/xlink" x="0px" y="0px"
	 viewBox="0 0 64 64" style="enable-background:new 0 0 64 64;" xml:space="preserve">
<style type="text/css">
	.st0{fill:#F9C995;}
	.st1{fill:#C52026;}
	.st2{fill:#DDDDDD;}
	.st3{fill:#787878;}
	.st4{fill:#FDC88D;}
	.st5{fill:#2D2D2D;}
	.st6{fill:#47C8F5;}
	.st7{fill:none;}
	.st8{fill:#BCBCBC;}
	.st9{fill:#606161;}
	.st10{fill:#F37B87;}
	.st11{fill:#FFC613;}
	.st12{fill:#FFFFFF;}
	.st13{fill:#E2A538;}
	.st14{fill:#FAE7D0;}
	.st15{fill:#F3AE3D;}
	.st16{fill:#81C341;}
	.st17{fill:none;stroke:#000000;stroke-width:2;stroke-linecap:round;stroke-linejoin:round;stroke-miterlimit:10;}
	.st18{opacity:0.3;}
	.st19{opacity:0.3;fill:#FFFFFF;}
</style>
<g id="Vector">
	<g>
		<path class="st1" d="M41.46,22.24c-0.46,0.48-1.1,0.8-1.81,0.84c-0.06,0.01-0.13,0.01-0.19,0.01H24.5c-0.76,0-1.44-0.3-1.94-0.78
			C15.53,27.24,10.7,37.48,10.7,49.3c0,16.64,42.72,16.64,42.72,0C53.42,37.42,48.55,27.14,41.46,22.24z M44.09,46.08h-8.07v8.07
			h-7.56v-8.07h-8.07v-7.56h8.07v-8.06h7.56v8.06h8.07V46.08z"/>
		<path class="st11" d="M42.26,20.23v0.06c0,0.76-0.3,1.44-0.8,1.95c-0.46,0.48-1.1,0.8-1.81,0.84c-0.06,0.01-0.13,0.01-0.19,0.01
			H24.5c-0.76,0-1.44-0.3-1.94-0.78c-0.53-0.52-0.86-1.23-0.86-2.02v-0.06c0-1.55,1.25-2.8,2.8-2.8h14.96c0.06,0,0.13,0,0.19,0.01
			C41.11,17.53,42.26,18.74,42.26,20.23z"/>
		<polygon class="st12" points="44.09,38.52 44.09,46.08 36.02,46.08 36.02,54.15 28.46,54.15 28.46,46.08 20.39,46.08 20.39,38.52 
			28.46,38.52 28.46,30.46 36.02,30.46 36.02,38.52 		"/>
		<path class="st1" d="M43.45,6.46l-6.33,10.97H26.84L20.51,6.46c-0.82-1.42,0.2-3.2,1.84-3.2h19.26
			C43.25,3.26,44.27,5.04,43.45,6.46z"/>
	</g>
</g>
<g id="Line">
	<g>
		<path class="st17" d="M41.46,22.24c-0.46,0.48-1.1,0.8-1.81,0.84c-0.06,0.01-0.13,0.01-0.19,0.01H24.5c-0.76,0-1.44-0.3-1.94-0.78
			C15.53,27.24,10.7,37.48,10.7,49.3c0,16.64,42.72,16.64,42.72,0C53.42,37.42,48.55,27.14,41.46,22.24z M44.09,46.08h-8.07v8.07
			h-7.56v-8.07h-8.07v-7.56h8.07v-8.06h7.56v8.06h8.07V46.08z"/>
		<path class="st17" d="M42.26,20.23v0.06c0,0.76-0.3,1.44-0.8,1.95c-0.46,0.48-1.1,0.8-1.81,0.84c-0.06,0.01-0.13,0.01-0.19,0.01
			H24.5c-0.76,0-1.44-0.3-1.94-0.78c-0.53-0.52-0.86-1.23-0.86-2.02v-0.06c0-1.55,1.25-2.8,2.8-2.8h14.96c0.06,0,0.13,0,0.19,0.01
			C41.11,17.53,42.26,18.74,42.26,20.23z"/>
		<polygon class="st17" points="44.09,38.52 44.09,46.08 36.02,46.08 36.02,54.15 28.46,54.15 28.46,46.08 20.39,46.08 20.39,38.52 
			28.46,38.52 28.46,30.46 36.02,30.46 36.02,38.52 		"/>
		<path class="st17" d="M43.45,6.46l-6.33,10.97H26.84L20.51,6.46c-0.82-1.42,0.2-3.2,1.84-3.2h19.26
			C43.25,3.26,44.27,5.04,43.45,6.46z"/>
	</g>
</g>
<g id="shadow">
	<path class="st18" d="M53.42,49.3c0-11.88-4.87-22.16-11.96-27.06c0.5-0.51,0.8-1.19,0.8-1.95v-0.06c0-1.49-1.15-2.7-2.61-2.79
		c-0.06-0.01-0.13-0.01-0.19-0.01h-2.34l6.33-10.97c0.57-0.99,0.24-2.13-0.56-2.75c-2.42,4.42-4.99,8.77-7.51,13.14
		c9.89,11.12,14.29,26.82,11.96,41.48C51.01,56.26,53.42,53.25,53.42,49.3z"/>
</g>
<g id="Highligth">
	<path class="st19" d="M10.32,49.3c0-11.88,4.87-22.16,11.96-27.06c-0.5-0.51-0.8-1.19-0.8-1.95v-0.06c0-1.49,1.15-2.7,2.61-2.79
		c0.06-0.01,0.13-0.01,0.19-0.01h2.34L20.29,6.46c-0.57-0.99-0.24-2.13,0.56-2.75c2.42,4.42,4.99,8.77,7.51,13.14
		C18.46,27.97,14.07,43.67,16.4,58.33C12.73,56.26,10.32,53.25,10.32,49.3z"/>
</g>
</svg>
